<svg class="img-fluid" id="outputsvg" xmlns="http://www.w3.org/2000/svg" style="transform: matrix(0.769231, 0, 0, 0.769231, -10.1993, -3.93439); transform-origin: 50% 50%; cursor: move; max-height: none; transition: transform 200ms ease-in-out 0s;" width="1102" height="620" viewBox="0 0 11020 6200">
  <g id="l6jKTDLg4Ac7AGb9Rm1b1Xn" fill="rgb(0,0,0)" style="transform: none;">
    <g style="transform: none;">
      <path id="pFHH9eCOm" d="M0 3100 l0 -3100 5510 0 5510 0 0 3100 0 3100 -5510 0 -5510 0 0 -3100z m5605 1161 c138 -8 174 -14 260 -41 113 -36 256 -105 329 -159 97 -72 241 -225 320 -339 43 -63 75 -116 72 -120 -3 -3 1 -16 10 -30 19 -29 64 -158 64 -183 0 -10 8 -22 17 -28 14 -7 15 -12 5 -24 -10 -11 -9 -29 4 -83 8 -38 16 -109 17 -159 l2 -90 145 -28 c727 -141 965 -191 975 -208 12 -18 -54 -22 -165 -10 -106 12 -203 24 -512 67 -137 19 -209 11 -319 -36 -109 -46 -229 -148 -229 -194 0 -8 -4 -18 -10 -21 -5 -3 -10 -13 -10 -22 0 -8 -9 -27 -20 -41 -28 -37 -100 -148 -100 -155 0 -3 -46 -52 -102 -108 -163 -161 -331 -260 -548 -322 -68 -20 -98 -22 -310 -22 -230 1 -237 1 -320 29 -110 36 -268 109 -345 159 -68 45 -265 234 -265 254 0 8 -13 19 -30 24 -24 9 -29 15 -24 33 4 16 -4 34 -28 63 -18 22 -46 71 -62 109 -16 38 -37 76 -47 86 -21 18 -25 38 -9 38 7 0 7 6 2 18 -6 9 -13 36 -17 59 -3 22 -13 49 -20 60 -7 10 -11 30 -8 45 4 21 0 29 -23 41 -27 14 -27 14 -6 26 21 11 31 41 15 41 -5 0 -14 4 -21 9 -11 7 -11 12 -2 28 13 20 10 26 -57 123 -41 59 -102 104 -228 168 -84 42 -119 54 -215 70 -63 11 -180 34 -260 51 -80 16 -183 37 -230 45 -138 26 -314 72 -302 79 44 28 194 13 911 -93 223 -33 418 -60 434 -60 24 0 27 4 27 31 0 17 11 52 24 78 14 25 27 53 30 61 3 8 10 22 14 30 14 24 34 62 51 95 8 17 18 35 23 40 131 171 249 285 368 355 143 83 302 139 456 159 92 11 86 11 269 2z"></path>
      <path id="puleSUJMI" d="M5414 3729 c-71 -12 -172 -50 -241 -90 -104 -61 -233 -211 -233 -271 0 -16 -7 -31 -15 -34 -42 -16 -11 -24 310 -74 209 -33 458 -75 535 -91 93 -19 338 -59 360 -59 22 0 22 2 16 63 -9 83 -25 138 -48 163 -13 14 -15 23 -8 26 16 5 -84 150 -131 191 -117 98 -176 130 -307 163 -98 25 -151 28 -238 13z"></path>
      <path id="peqqyZxVq" d="M4866 3168 c-11 -42 -6 -152 11 -229 13 -63 20 -79 40 -88 18 -8 23 -16 18 -31 -9 -27 18 -74 52 -89 25 -11 26 -14 11 -25 -15 -11 -13 -15 18 -45 19 -19 34 -38 34 -42 0 -9 100 -76 180 -121 25 -14 81 -36 125 -48 148 -41 346 -10 490 78 92 57 197 167 239 254 33 66 63 184 50 197 -2 3 -96 19 -207 37 -295 47 -680 111 -852 143 -55 10 -123 21 -151 25 -48 6 -52 5 -58 -16z"></path>
    </g>
  </g>
  <g id="l6T7mEXx24vENmR1sfgaonS" fill="rgb(255,255,255)" style="transform: none;">
    <g style="transform: none;">
      <path id="pA9JMytOz" d="M5336 4259 c-111 -15 -190 -36 -294 -80 -223 -95 -350 -198 -530 -434 -5 -5 -15 -23 -23 -40 -17 -33 -37 -71 -51 -95 -4 -8 -11 -22 -14 -30 -3 -8 -16 -36 -30 -61 -13 -26 -24 -61 -24 -78 0 -27 -3 -31 -27 -31 -16 0 -211 27 -434 60 -717 106 -867 121 -911 93 -12 -7 164 -53 302 -79 47 -8 150 -29 230 -45 80 -17 197 -40 260 -51 96 -16 131 -28 215 -70 126 -64 187 -109 228 -168 67 -97 70 -103 57 -123 -9 -16 -9 -21 2 -28 7 -5 16 -9 21 -9 16 0 6 -30 -15 -41 -21 -12 -21 -12 6 -26 23 -12 27 -20 23 -41 -3 -15 1 -35 8 -45 7 -11 17 -38 20 -60 4 -23 11 -50 17 -59 5 -12 5 -18 -2 -18 -16 0 -12 -20 9 -38 10 -10 31 -48 47 -86 16 -38 44 -87 62 -109 24 -29 32 -47 28 -63 -5 -18 0 -24 24 -33 17 -5 30 -16 30 -24 0 -20 197 -209 265 -254 77 -50 235 -123 345 -159 83 -28 90 -28 320 -29 212 0 242 2 310 22 217 62 385 161 548 322 56 56 102 105 102 108 0 7 72 118 100 155 11 14 20 33 20 41 0 9 5 19 10 22 6 3 10 13 10 21 0 46 120 148 229 194 110 47 182 55 319 36 309 -43 406 -55 512 -67 111 -12 177 -8 165 10 -10 17 -248 67 -975 208 l-145 28 -2 90 c-1 50 -9 121 -17 159 -13 54 -14 72 -4 83 10 12 9 17 -5 24 -9 6 -17 18 -17 28 0 25 -45 154 -64 183 -9 14 -13 27 -10 30 3 4 -29 57 -72 120 -79 114 -223 267 -320 339 -73 54 -216 123 -329 159 -86 27 -122 33 -260 41 -183 9 -177 9 -269 -2z m316 -543 c131 -33 190 -65 307 -163 47 -41 147 -186 131 -191 -7 -3 -5 -12 8 -26 23 -25 39 -80 48 -163 6 -61 6 -63 -16 -63 -22 0 -267 40 -360 59 -77 16 -326 58 -535 91 -321 50 -352 58 -310 74 8 3 15 18 15 34 0 60 129 210 233 271 103 60 227 97 338 100 26 0 89 -10 141 -23z m-577 -557 c172 -32 557 -96 852 -143 111 -18 205 -34 207 -37 13 -13 -17 -131 -50 -197 -42 -87 -147 -197 -239 -254 -144 -88 -342 -119 -490 -78 -44 12 -100 34 -125 48 -80 45 -180 112 -180 121 0 4 -15 23 -34 42 -31 30 -33 34 -18 45 15 11 14 14 -11 25 -34 15 -61 62 -52 89 5 15 0 23 -18 31 -20 9 -27 25 -40 88 -17 77 -22 187 -11 229 6 21 10 22 58 16 28 -4 96 -15 151 -25z"></path>
    </g>
  </g>
</svg>
